# xmcd CD database file
#
# Track frame offsets:
#	150
#	23788
#	44073
#	64826
#	88887
#	102196
#	119296
#	146659
#	170239
#	186694
#	203232
#	221374
#
# Disc length: 3055 seconds
#
# Revision: 0
# Processed by: cddbd v1.5.2PL0 Copyright (c) Steve Scherf et al.
# Submitted via: NeoAudio 9.9.9
#
DISCID=be0bed0c
DTITLE=Bullfrog Blues Machine, The - 2005 - Cross That Line
DYEAR=2005
DGENRE=Blues
TTITLE0=Thin Line
TTITLE1=Mr, 'J'
TTITLE2=On A Day Like This
TTITLE3=Cross That Line
TTITLE4=Barkin' Dog Blues
TTITLE5=Back To The Roots
TTITLE6=Johnny Left His Homeground
TTITLE7=When Your Life Is A Lie
TTITLE8=Tears Cried For Heaven Or Hell
TTITLE9=Take It As It Comes
TTITLE10=Same World, Different Colors
TTITLE11=Bobtjes Dog
EXTD=YEAR: 2005
EXTT0=
EXTT1=
EXTT2=
EXTT3=
EXTT4=
EXTT5=
EXTT6=
EXTT7=
EXTT8=
EXTT9=
EXTT10=
EXTT11=
PLAYORDER=
